G04 #@! TF.GenerationSoftware,KiCad,Pcbnew,(5.1.9)-1*
G04 #@! TF.CreationDate,2021-06-17T11:01:42+10:00*
G04 #@! TF.ProjectId,Clock_board,436c6f63-6b5f-4626-9f61-72642e6b6963,rev?*
G04 #@! TF.SameCoordinates,PX6f6d640PY5734380*
G04 #@! TF.FileFunction,Legend,Top*
G04 #@! TF.FilePolarity,Positive*
%FSLAX46Y46*%
G04 Gerber Fmt 4.6, Leading zero omitted, Abs format (unit mm)*
G04 Created by KiCad (PCBNEW (5.1.9)-1) date 2021-06-17 11:01:42*
%MOMM*%
%LPD*%
G01*
G04 APERTURE LIST*
%ADD10C,0.100000*%
%ADD11C,0.400000*%
%ADD12C,0.120000*%
%ADD13C,0.200000*%
G04 APERTURE END LIST*
D10*
G36*
X25781000Y12954000D02*
G01*
X25019000Y12954000D01*
X25400000Y13970000D01*
X25781000Y12954000D01*
G37*
X25781000Y12954000D02*
X25019000Y12954000D01*
X25400000Y13970000D01*
X25781000Y12954000D01*
D11*
X18849000Y12954000D02*
G75*
G03*
X18849000Y12954000I-180000J0D01*
G01*
D12*
X25781000Y12954000D02*
X25400000Y13970000D01*
X25019000Y12954000D02*
X25781000Y12954000D01*
X25400000Y13970000D02*
X25019000Y12954000D01*
X13435000Y9371064D02*
X13435000Y8916936D01*
X11965000Y9371064D02*
X11965000Y8916936D01*
X19203936Y5180000D02*
X19658064Y5180000D01*
X19203936Y3710000D02*
X19658064Y3710000D01*
X27151000Y10387064D02*
X27151000Y9932936D01*
X25681000Y10387064D02*
X25681000Y9932936D01*
X14731000Y9678641D02*
X14731000Y9371359D01*
X13971000Y9678641D02*
X13971000Y9371359D01*
X15169000Y3173000D02*
X14239000Y3173000D01*
X12009000Y3173000D02*
X12939000Y3173000D01*
X12009000Y3173000D02*
X12009000Y1013000D01*
X15169000Y3173000D02*
X15169000Y1713000D01*
X15242000Y8184000D02*
X15242000Y7254000D01*
X15242000Y5024000D02*
X15242000Y5954000D01*
X15242000Y5024000D02*
X17402000Y5024000D01*
X15242000Y8184000D02*
X16702000Y8184000D01*
X21590000Y5505000D02*
X23790000Y5505000D01*
X21590000Y5505000D02*
X19390000Y5505000D01*
X21590000Y12275000D02*
X23790000Y12275000D01*
X21590000Y12275000D02*
X17990000Y12275000D01*
X11940000Y7295000D02*
X11940000Y6365000D01*
X11940000Y4135000D02*
X11940000Y5065000D01*
X11940000Y4135000D02*
X14100000Y4135000D01*
X11940000Y7295000D02*
X13400000Y7295000D01*
X16616000Y9632836D02*
X16616000Y9417164D01*
X15896000Y9632836D02*
X15896000Y9417164D01*
X17632000Y9632836D02*
X17632000Y9417164D01*
X16912000Y9632836D02*
X16912000Y9417164D01*
D13*
X13061904Y11464179D02*
X12680952Y11245131D01*
X13061904Y11007036D02*
X12261904Y11107036D01*
X12261904Y11411798D01*
X12300000Y11483227D01*
X12338095Y11516560D01*
X12414285Y11545131D01*
X12528571Y11530846D01*
X12604761Y11483227D01*
X12642857Y11440370D01*
X12680952Y11359417D01*
X12680952Y11054655D01*
X12528571Y12216560D02*
X13061904Y12149893D01*
X12223809Y12064179D02*
X12795238Y11802274D01*
X12795238Y12297512D01*
X19211178Y2432096D02*
X18992130Y2813048D01*
X18754035Y2432096D02*
X18854035Y3232096D01*
X19158797Y3232096D01*
X19230226Y3194000D01*
X19263559Y3155905D01*
X19292130Y3079715D01*
X19277845Y2965429D01*
X19230226Y2889239D01*
X19187369Y2851143D01*
X19106416Y2813048D01*
X18801654Y2813048D01*
X19577845Y3232096D02*
X20073083Y3232096D01*
X19768321Y2927334D01*
X19882607Y2927334D01*
X19954035Y2889239D01*
X19987369Y2851143D01*
X20015940Y2774953D01*
X19992130Y2584477D01*
X19944511Y2508286D01*
X19901654Y2470191D01*
X19820702Y2432096D01*
X19592130Y2432096D01*
X19520702Y2470191D01*
X19487369Y2508286D01*
X26196178Y7512096D02*
X25977130Y7893048D01*
X25739035Y7512096D02*
X25839035Y8312096D01*
X26143797Y8312096D01*
X26215226Y8274000D01*
X26248559Y8235905D01*
X26277130Y8159715D01*
X26262845Y8045429D01*
X26215226Y7969239D01*
X26172369Y7931143D01*
X26091416Y7893048D01*
X25786654Y7893048D01*
X26591416Y8235905D02*
X26634273Y8274000D01*
X26715226Y8312096D01*
X26905702Y8312096D01*
X26977130Y8274000D01*
X27010464Y8235905D01*
X27039035Y8159715D01*
X27029511Y8083524D01*
X26977130Y7969239D01*
X26462845Y7512096D01*
X26958083Y7512096D01*
X14712904Y11083179D02*
X14331952Y10864131D01*
X14712904Y10626036D02*
X13912904Y10726036D01*
X13912904Y11030798D01*
X13951000Y11102227D01*
X13989095Y11135560D01*
X14065285Y11164131D01*
X14179571Y11149846D01*
X14255761Y11102227D01*
X14293857Y11059370D01*
X14331952Y10978417D01*
X14331952Y10673655D01*
X14712904Y11845084D02*
X14712904Y11387941D01*
X14712904Y11616512D02*
X13912904Y11716512D01*
X14027190Y11626036D01*
X14103380Y11540322D01*
X14141476Y11459370D01*
X15956797Y1974905D02*
X15885369Y2013000D01*
X15818702Y2089191D01*
X15718702Y2203477D01*
X15647273Y2241572D01*
X15571083Y2241572D01*
X15585369Y2051096D02*
X15513940Y2089191D01*
X15447273Y2165381D01*
X15428226Y2317762D01*
X15461559Y2584429D01*
X15518702Y2736810D01*
X15604416Y2813000D01*
X15685369Y2851096D01*
X15837750Y2851096D01*
X15909178Y2813000D01*
X15975845Y2736810D01*
X15994892Y2584429D01*
X15961559Y2317762D01*
X15904416Y2165381D01*
X15818702Y2089191D01*
X15737750Y2051096D01*
X15585369Y2051096D01*
X16323464Y2774905D02*
X16366321Y2813000D01*
X16447273Y2851096D01*
X16637750Y2851096D01*
X16709178Y2813000D01*
X16742511Y2774905D01*
X16771083Y2698715D01*
X16761559Y2622524D01*
X16709178Y2508239D01*
X16194892Y2051096D01*
X16690130Y2051096D01*
X16845797Y3879905D02*
X16774369Y3918000D01*
X16707702Y3994191D01*
X16607702Y4108477D01*
X16536273Y4146572D01*
X16460083Y4146572D01*
X16474369Y3956096D02*
X16402940Y3994191D01*
X16336273Y4070381D01*
X16317226Y4222762D01*
X16350559Y4489429D01*
X16407702Y4641810D01*
X16493416Y4718000D01*
X16574369Y4756096D01*
X16726750Y4756096D01*
X16798178Y4718000D01*
X16864845Y4641810D01*
X16883892Y4489429D01*
X16850559Y4222762D01*
X16793416Y4070381D01*
X16707702Y3994191D01*
X16626750Y3956096D01*
X16474369Y3956096D01*
X17579130Y3956096D02*
X17121988Y3956096D01*
X17350559Y3956096D02*
X17450559Y4756096D01*
X17360083Y4641810D01*
X17274369Y4565620D01*
X17193416Y4527524D01*
X21783035Y4337096D02*
X21883035Y5137096D01*
X22073511Y5137096D01*
X22183035Y5099000D01*
X22249702Y5022810D01*
X22278273Y4946620D01*
X22297321Y4794239D01*
X22283035Y4679953D01*
X22225892Y4527572D01*
X22178273Y4451381D01*
X22092559Y4375191D01*
X21973511Y4337096D01*
X21783035Y4337096D01*
X22583035Y4337096D02*
X22683035Y5137096D01*
X22873511Y5137096D01*
X22983035Y5099000D01*
X23049702Y5022810D01*
X23078273Y4946620D01*
X23097321Y4794239D01*
X23083035Y4679953D01*
X23025892Y4527572D01*
X22978273Y4451381D01*
X22892559Y4375191D01*
X22773511Y4337096D01*
X22583035Y4337096D01*
X23802083Y4337096D02*
X23344940Y4337096D01*
X23573511Y4337096D02*
X23673511Y5137096D01*
X23583035Y5022810D01*
X23497321Y4946620D01*
X23416369Y4908524D01*
X14436035Y3956096D02*
X14536035Y4756096D01*
X14726511Y4756096D01*
X14836035Y4718000D01*
X14902702Y4641810D01*
X14931273Y4565620D01*
X14950321Y4413239D01*
X14936035Y4298953D01*
X14878892Y4146572D01*
X14831273Y4070381D01*
X14745559Y3994191D01*
X14626511Y3956096D01*
X14436035Y3956096D01*
X15655083Y3956096D02*
X15197940Y3956096D01*
X15426511Y3956096D02*
X15526511Y4756096D01*
X15436035Y4641810D01*
X15350321Y4565620D01*
X15269369Y4527524D01*
X16541714Y11064703D02*
X16579809Y11021846D01*
X16617904Y10902798D01*
X16617904Y10826608D01*
X16579809Y10717084D01*
X16503619Y10650417D01*
X16427428Y10621846D01*
X16275047Y10602798D01*
X16160761Y10617084D01*
X16008380Y10674227D01*
X15932190Y10721846D01*
X15856000Y10807560D01*
X15817904Y10926608D01*
X15817904Y11002798D01*
X15856000Y11112322D01*
X15894095Y11145655D01*
X15894095Y11450417D02*
X15856000Y11493274D01*
X15817904Y11574227D01*
X15817904Y11764703D01*
X15856000Y11836131D01*
X15894095Y11869465D01*
X15970285Y11898036D01*
X16046476Y11888512D01*
X16160761Y11836131D01*
X16617904Y11321846D01*
X16617904Y11817084D01*
X17557714Y11092703D02*
X17595809Y11049846D01*
X17633904Y10930798D01*
X17633904Y10854608D01*
X17595809Y10745084D01*
X17519619Y10678417D01*
X17443428Y10649846D01*
X17291047Y10630798D01*
X17176761Y10645084D01*
X17024380Y10702227D01*
X16948190Y10749846D01*
X16872000Y10835560D01*
X16833904Y10954608D01*
X16833904Y11030798D01*
X16872000Y11140322D01*
X16910095Y11173655D01*
X17633904Y11845084D02*
X17633904Y11387941D01*
X17633904Y11616512D02*
X16833904Y11716512D01*
X16948190Y11626036D01*
X17024380Y11540322D01*
X17062476Y11459370D01*
M02*
