G04 #@! TF.GenerationSoftware,KiCad,Pcbnew,(5.1.9)-1*
G04 #@! TF.CreationDate,2021-06-17T11:01:42+10:00*
G04 #@! TF.ProjectId,Clock_board,436c6f63-6b5f-4626-9f61-72642e6b6963,rev?*
G04 #@! TF.SameCoordinates,PX6f6d640PY5734380*
G04 #@! TF.FileFunction,Copper,L2,Bot*
G04 #@! TF.FilePolarity,Positive*
%FSLAX46Y46*%
G04 Gerber Fmt 4.6, Leading zero omitted, Abs format (unit mm)*
G04 Created by KiCad (PCBNEW (5.1.9)-1) date 2021-06-17 11:01:42*
%MOMM*%
%LPD*%
G01*
G04 APERTURE LIST*
G04 #@! TA.AperFunction,SMDPad,CuDef*
%ADD10R,1.200000X1.000000*%
G04 #@! TD*
G04 #@! TA.AperFunction,ComponentPad*
%ADD11C,1.000000*%
G04 #@! TD*
G04 #@! TA.AperFunction,SMDPad,CuDef*
%ADD12C,16.000000*%
G04 #@! TD*
G04 #@! TA.AperFunction,ComponentPad*
%ADD13C,2.500000*%
G04 #@! TD*
G04 #@! TA.AperFunction,ViaPad*
%ADD14C,0.600000*%
G04 #@! TD*
G04 #@! TA.AperFunction,Conductor*
%ADD15C,0.300000*%
G04 #@! TD*
G04 #@! TA.AperFunction,Conductor*
%ADD16C,0.500000*%
G04 #@! TD*
G04 #@! TA.AperFunction,Conductor*
%ADD17C,0.700000*%
G04 #@! TD*
G04 #@! TA.AperFunction,Conductor*
%ADD18C,0.254000*%
G04 #@! TD*
G04 #@! TA.AperFunction,Conductor*
%ADD19C,0.150000*%
G04 #@! TD*
G04 APERTURE END LIST*
D10*
X1822000Y19137000D03*
X1822000Y16637000D03*
X1822000Y14137000D03*
X7322000Y14137000D03*
X7322000Y16637000D03*
X7322000Y19137000D03*
D11*
X4572000Y15137000D03*
X4572000Y18137000D03*
D12*
X19050000Y10541000D03*
D13*
X7850000Y10541000D03*
X30250000Y10541000D03*
D14*
X26162000Y8001000D03*
X15748000Y1397000D03*
X21717000Y13208000D03*
X16002000Y7493000D03*
X15367000Y9144000D03*
X20066000Y9398000D03*
X5969000Y16637000D03*
X7366000Y17907000D03*
X7366000Y15494000D03*
D15*
X7366000Y16681000D02*
X7322000Y16637000D01*
D16*
X7366000Y17907000D02*
X7366000Y16681000D01*
D15*
X7366000Y16593000D02*
X7322000Y16637000D01*
D16*
X7366000Y15494000D02*
X7366000Y16593000D01*
X7322000Y16637000D02*
X5969000Y16637000D01*
D15*
X7366000Y14093000D02*
X7322000Y14137000D01*
X7322000Y14137000D02*
X7326000Y14137000D01*
D17*
X7850000Y13613000D02*
X7850000Y10541000D01*
X7326000Y14137000D02*
X7850000Y13613000D01*
D18*
X27308112Y20628804D02*
X28176263Y20410740D01*
X28997144Y20053811D01*
X29748705Y19567605D01*
X30410762Y18965178D01*
X30965541Y18262708D01*
X31398134Y17479065D01*
X31696935Y16635281D01*
X31854685Y15749676D01*
X31879000Y15234066D01*
X31879001Y8517587D01*
X31802026Y7388477D01*
X31574271Y6288692D01*
X31199361Y5229979D01*
X30684242Y4231955D01*
X30038438Y3313067D01*
X29273904Y2490332D01*
X28404783Y1778966D01*
X27447166Y1192136D01*
X26418762Y740699D01*
X25338605Y433007D01*
X24222754Y274198D01*
X23617375Y252000D01*
X6475000Y252000D01*
X6475000Y4428710D01*
X13117315Y4428710D01*
X14053207Y3447439D01*
X15533104Y2608914D01*
X17148154Y2075214D01*
X18836290Y1866850D01*
X20532639Y1991829D01*
X22172011Y2445347D01*
X23691406Y3209976D01*
X24046793Y3447439D01*
X24982685Y4428710D01*
X19050000Y10361395D01*
X13117315Y4428710D01*
X6475000Y4428710D01*
X6475000Y9760309D01*
X6625064Y9535721D01*
X6844721Y9316064D01*
X7103011Y9143481D01*
X7390006Y9024604D01*
X7694679Y8964000D01*
X8005321Y8964000D01*
X8309994Y9024604D01*
X8596989Y9143481D01*
X8855279Y9316064D01*
X9074936Y9535721D01*
X9247519Y9794011D01*
X9366396Y10081006D01*
X9427000Y10385679D01*
X9427000Y10696321D01*
X9415386Y10754710D01*
X10375850Y10754710D01*
X10500829Y9058361D01*
X10954347Y7418989D01*
X11718976Y5899594D01*
X11956439Y5544207D01*
X12937710Y4608315D01*
X18870395Y10541000D01*
X19229605Y10541000D01*
X25162290Y4608315D01*
X26143561Y5544207D01*
X26982086Y7024104D01*
X27515786Y8639154D01*
X27724150Y10327290D01*
X27696962Y10696321D01*
X28673000Y10696321D01*
X28673000Y10385679D01*
X28733604Y10081006D01*
X28852481Y9794011D01*
X29025064Y9535721D01*
X29244721Y9316064D01*
X29503011Y9143481D01*
X29790006Y9024604D01*
X30094679Y8964000D01*
X30405321Y8964000D01*
X30709994Y9024604D01*
X30996989Y9143481D01*
X31255279Y9316064D01*
X31474936Y9535721D01*
X31647519Y9794011D01*
X31766396Y10081006D01*
X31827000Y10385679D01*
X31827000Y10696321D01*
X31766396Y11000994D01*
X31647519Y11287989D01*
X31474936Y11546279D01*
X31255279Y11765936D01*
X30996989Y11938519D01*
X30709994Y12057396D01*
X30405321Y12118000D01*
X30094679Y12118000D01*
X29790006Y12057396D01*
X29503011Y11938519D01*
X29244721Y11765936D01*
X29025064Y11546279D01*
X28852481Y11287989D01*
X28733604Y11000994D01*
X28673000Y10696321D01*
X27696962Y10696321D01*
X27599171Y12023639D01*
X27145653Y13663011D01*
X26381024Y15182406D01*
X26143561Y15537793D01*
X25162290Y16473685D01*
X19229605Y10541000D01*
X18870395Y10541000D01*
X12937710Y16473685D01*
X11956439Y15537793D01*
X11117914Y14057896D01*
X10584214Y12442846D01*
X10375850Y10754710D01*
X9415386Y10754710D01*
X9366396Y11000994D01*
X9247519Y11287989D01*
X9074936Y11546279D01*
X8855279Y11765936D01*
X8596989Y11938519D01*
X8527000Y11967509D01*
X8527000Y13579755D01*
X8530274Y13613000D01*
X8527000Y13646245D01*
X8527000Y13646252D01*
X8517204Y13745715D01*
X8478492Y13873330D01*
X8415628Y13990941D01*
X8352224Y14068199D01*
X8352218Y14068205D01*
X8331026Y14094027D01*
X8305205Y14115218D01*
X8250582Y14169841D01*
X8250582Y14637000D01*
X8244268Y14701103D01*
X8225570Y14762743D01*
X8195206Y14819550D01*
X8154343Y14869343D01*
X8104550Y14910206D01*
X8047743Y14940570D01*
X7986103Y14959268D01*
X7922000Y14965582D01*
X7703737Y14965582D01*
X7765689Y15006977D01*
X7853023Y15094311D01*
X7921640Y15197004D01*
X7968905Y15311111D01*
X7993000Y15432246D01*
X7993000Y15555754D01*
X7968905Y15676889D01*
X7943000Y15739429D01*
X7943000Y15810486D01*
X7986103Y15814732D01*
X8047743Y15833430D01*
X8104550Y15863794D01*
X8154343Y15904657D01*
X8195206Y15954450D01*
X8225570Y16011257D01*
X8244268Y16072897D01*
X8250582Y16137000D01*
X8250582Y16653290D01*
X13117315Y16653290D01*
X19050000Y10720605D01*
X24982685Y16653290D01*
X24046793Y17634561D01*
X22566896Y18473086D01*
X20951846Y19006786D01*
X19263710Y19215150D01*
X17567361Y19090171D01*
X15927989Y18636653D01*
X14408594Y17872024D01*
X14053207Y17634561D01*
X13117315Y16653290D01*
X8250582Y16653290D01*
X8250582Y17137000D01*
X8244268Y17201103D01*
X8225570Y17262743D01*
X8195206Y17319550D01*
X8154343Y17369343D01*
X8104550Y17410206D01*
X8047743Y17440570D01*
X7986103Y17459268D01*
X7943000Y17463514D01*
X7943000Y17661571D01*
X7968905Y17724111D01*
X7993000Y17845246D01*
X7993000Y17968754D01*
X7968905Y18089889D01*
X7921640Y18203996D01*
X7853023Y18306689D01*
X7851294Y18308418D01*
X7922000Y18308418D01*
X7986103Y18314732D01*
X8047743Y18333430D01*
X8104550Y18363794D01*
X8154343Y18404657D01*
X8195206Y18454450D01*
X8225570Y18511257D01*
X8244268Y18572897D01*
X8250582Y18637000D01*
X8250582Y19637000D01*
X8244268Y19701103D01*
X8225570Y19762743D01*
X8195206Y19819550D01*
X8154343Y19869343D01*
X8104550Y19910206D01*
X8047743Y19940570D01*
X7986103Y19959268D01*
X7922000Y19965582D01*
X6722000Y19965582D01*
X6657897Y19959268D01*
X6596257Y19940570D01*
X6539450Y19910206D01*
X6489657Y19869343D01*
X6448794Y19819550D01*
X6418430Y19762743D01*
X6399732Y19701103D01*
X6393418Y19637000D01*
X6393418Y18637000D01*
X6399732Y18572897D01*
X6418430Y18511257D01*
X6448794Y18454450D01*
X6489657Y18404657D01*
X6539450Y18363794D01*
X6596257Y18333430D01*
X6657897Y18314732D01*
X6722000Y18308418D01*
X6880706Y18308418D01*
X6878977Y18306689D01*
X6810360Y18203996D01*
X6763095Y18089889D01*
X6739000Y17968754D01*
X6739000Y17845246D01*
X6763095Y17724111D01*
X6789000Y17661571D01*
X6789000Y17465582D01*
X6722000Y17465582D01*
X6657897Y17459268D01*
X6596257Y17440570D01*
X6539450Y17410206D01*
X6489657Y17369343D01*
X6448794Y17319550D01*
X6418430Y17262743D01*
X6403644Y17214000D01*
X6214429Y17214000D01*
X6151889Y17239905D01*
X6030754Y17264000D01*
X5907246Y17264000D01*
X5786111Y17239905D01*
X5672004Y17192640D01*
X5569311Y17124023D01*
X5481977Y17036689D01*
X5413360Y16933996D01*
X5366095Y16819889D01*
X5342000Y16698754D01*
X5342000Y16575246D01*
X5366095Y16454111D01*
X5413360Y16340004D01*
X5481977Y16237311D01*
X5569311Y16149977D01*
X5672004Y16081360D01*
X5786111Y16034095D01*
X5907246Y16010000D01*
X6030754Y16010000D01*
X6151889Y16034095D01*
X6214429Y16060000D01*
X6403644Y16060000D01*
X6418430Y16011257D01*
X6448794Y15954450D01*
X6489657Y15904657D01*
X6539450Y15863794D01*
X6596257Y15833430D01*
X6657897Y15814732D01*
X6722000Y15808418D01*
X6789000Y15808418D01*
X6789000Y15739429D01*
X6763095Y15676889D01*
X6739000Y15555754D01*
X6739000Y15432246D01*
X6763095Y15311111D01*
X6810360Y15197004D01*
X6878977Y15094311D01*
X6966311Y15006977D01*
X7028263Y14965582D01*
X6722000Y14965582D01*
X6657897Y14959268D01*
X6596257Y14940570D01*
X6539450Y14910206D01*
X6489657Y14869343D01*
X6448794Y14819550D01*
X6418430Y14762743D01*
X6399732Y14701103D01*
X6393418Y14637000D01*
X6393418Y13637000D01*
X6399732Y13572897D01*
X6418430Y13511257D01*
X6448794Y13454450D01*
X6489657Y13404657D01*
X6539450Y13363794D01*
X6596257Y13333430D01*
X6657897Y13314732D01*
X6722000Y13308418D01*
X7173000Y13308418D01*
X7173001Y11967510D01*
X7103011Y11938519D01*
X6844721Y11765936D01*
X6625064Y11546279D01*
X6475000Y11321691D01*
X6475000Y12052625D01*
X6476219Y12065000D01*
X6471353Y12114401D01*
X6456944Y12161903D01*
X6433544Y12205681D01*
X6402053Y12244053D01*
X6363681Y12275544D01*
X6319903Y12298944D01*
X6272401Y12313353D01*
X6235376Y12317000D01*
X6235375Y12317000D01*
X6223000Y12318219D01*
X6210624Y12317000D01*
X252000Y12317000D01*
X252000Y14637000D01*
X893418Y14637000D01*
X893418Y13637000D01*
X899732Y13572897D01*
X918430Y13511257D01*
X948794Y13454450D01*
X989657Y13404657D01*
X1039450Y13363794D01*
X1096257Y13333430D01*
X1157897Y13314732D01*
X1222000Y13308418D01*
X2422000Y13308418D01*
X2486103Y13314732D01*
X2547743Y13333430D01*
X2604550Y13363794D01*
X2654343Y13404657D01*
X2695206Y13454450D01*
X2725570Y13511257D01*
X2744268Y13572897D01*
X2750582Y13637000D01*
X2750582Y14637000D01*
X2744268Y14701103D01*
X2725570Y14762743D01*
X2695206Y14819550D01*
X2654343Y14869343D01*
X2604550Y14910206D01*
X2547743Y14940570D01*
X2486103Y14959268D01*
X2422000Y14965582D01*
X1222000Y14965582D01*
X1157897Y14959268D01*
X1096257Y14940570D01*
X1039450Y14910206D01*
X989657Y14869343D01*
X948794Y14819550D01*
X918430Y14762743D01*
X899732Y14701103D01*
X893418Y14637000D01*
X252000Y14637000D01*
X252000Y15218452D01*
X3745000Y15218452D01*
X3745000Y15055548D01*
X3776782Y14895773D01*
X3839123Y14745269D01*
X3929628Y14609819D01*
X4044819Y14494628D01*
X4180269Y14404123D01*
X4330773Y14341782D01*
X4490548Y14310000D01*
X4653452Y14310000D01*
X4813227Y14341782D01*
X4963731Y14404123D01*
X5099181Y14494628D01*
X5214372Y14609819D01*
X5304877Y14745269D01*
X5367218Y14895773D01*
X5399000Y15055548D01*
X5399000Y15218452D01*
X5367218Y15378227D01*
X5304877Y15528731D01*
X5214372Y15664181D01*
X5099181Y15779372D01*
X4963731Y15869877D01*
X4813227Y15932218D01*
X4653452Y15964000D01*
X4490548Y15964000D01*
X4330773Y15932218D01*
X4180269Y15869877D01*
X4044819Y15779372D01*
X3929628Y15664181D01*
X3839123Y15528731D01*
X3776782Y15378227D01*
X3745000Y15218452D01*
X252000Y15218452D01*
X252000Y17137000D01*
X893418Y17137000D01*
X893418Y16137000D01*
X899732Y16072897D01*
X918430Y16011257D01*
X948794Y15954450D01*
X989657Y15904657D01*
X1039450Y15863794D01*
X1096257Y15833430D01*
X1157897Y15814732D01*
X1222000Y15808418D01*
X2422000Y15808418D01*
X2486103Y15814732D01*
X2547743Y15833430D01*
X2604550Y15863794D01*
X2654343Y15904657D01*
X2695206Y15954450D01*
X2725570Y16011257D01*
X2744268Y16072897D01*
X2750582Y16137000D01*
X2750582Y17137000D01*
X2744268Y17201103D01*
X2725570Y17262743D01*
X2695206Y17319550D01*
X2654343Y17369343D01*
X2604550Y17410206D01*
X2547743Y17440570D01*
X2486103Y17459268D01*
X2422000Y17465582D01*
X1222000Y17465582D01*
X1157897Y17459268D01*
X1096257Y17440570D01*
X1039450Y17410206D01*
X989657Y17369343D01*
X948794Y17319550D01*
X918430Y17262743D01*
X899732Y17201103D01*
X893418Y17137000D01*
X252000Y17137000D01*
X252000Y18218452D01*
X3745000Y18218452D01*
X3745000Y18055548D01*
X3776782Y17895773D01*
X3839123Y17745269D01*
X3929628Y17609819D01*
X4044819Y17494628D01*
X4180269Y17404123D01*
X4330773Y17341782D01*
X4490548Y17310000D01*
X4653452Y17310000D01*
X4813227Y17341782D01*
X4963731Y17404123D01*
X5099181Y17494628D01*
X5214372Y17609819D01*
X5304877Y17745269D01*
X5367218Y17895773D01*
X5399000Y18055548D01*
X5399000Y18218452D01*
X5367218Y18378227D01*
X5304877Y18528731D01*
X5214372Y18664181D01*
X5099181Y18779372D01*
X4963731Y18869877D01*
X4813227Y18932218D01*
X4653452Y18964000D01*
X4490548Y18964000D01*
X4330773Y18932218D01*
X4180269Y18869877D01*
X4044819Y18779372D01*
X3929628Y18664181D01*
X3839123Y18528731D01*
X3776782Y18378227D01*
X3745000Y18218452D01*
X252000Y18218452D01*
X252000Y19637000D01*
X893418Y19637000D01*
X893418Y18637000D01*
X899732Y18572897D01*
X918430Y18511257D01*
X948794Y18454450D01*
X989657Y18404657D01*
X1039450Y18363794D01*
X1096257Y18333430D01*
X1157897Y18314732D01*
X1222000Y18308418D01*
X2422000Y18308418D01*
X2486103Y18314732D01*
X2547743Y18333430D01*
X2604550Y18363794D01*
X2654343Y18404657D01*
X2695206Y18454450D01*
X2725570Y18511257D01*
X2744268Y18572897D01*
X2750582Y18637000D01*
X2750582Y19637000D01*
X2744268Y19701103D01*
X2725570Y19762743D01*
X2695206Y19819550D01*
X2654343Y19869343D01*
X2604550Y19910206D01*
X2547743Y19940570D01*
X2486103Y19959268D01*
X2422000Y19965582D01*
X1222000Y19965582D01*
X1157897Y19959268D01*
X1096257Y19940570D01*
X1039450Y19910206D01*
X989657Y19869343D01*
X948794Y19819550D01*
X918430Y19762743D01*
X899732Y19701103D01*
X893418Y19637000D01*
X252000Y19637000D01*
X252000Y20703000D01*
X26405654Y20703000D01*
X27308112Y20628804D01*
G04 #@! TA.AperFunction,Conductor*
D19*
G36*
X27308112Y20628804D02*
G01*
X28176263Y20410740D01*
X28997144Y20053811D01*
X29748705Y19567605D01*
X30410762Y18965178D01*
X30965541Y18262708D01*
X31398134Y17479065D01*
X31696935Y16635281D01*
X31854685Y15749676D01*
X31879000Y15234066D01*
X31879001Y8517587D01*
X31802026Y7388477D01*
X31574271Y6288692D01*
X31199361Y5229979D01*
X30684242Y4231955D01*
X30038438Y3313067D01*
X29273904Y2490332D01*
X28404783Y1778966D01*
X27447166Y1192136D01*
X26418762Y740699D01*
X25338605Y433007D01*
X24222754Y274198D01*
X23617375Y252000D01*
X6475000Y252000D01*
X6475000Y4428710D01*
X13117315Y4428710D01*
X14053207Y3447439D01*
X15533104Y2608914D01*
X17148154Y2075214D01*
X18836290Y1866850D01*
X20532639Y1991829D01*
X22172011Y2445347D01*
X23691406Y3209976D01*
X24046793Y3447439D01*
X24982685Y4428710D01*
X19050000Y10361395D01*
X13117315Y4428710D01*
X6475000Y4428710D01*
X6475000Y9760309D01*
X6625064Y9535721D01*
X6844721Y9316064D01*
X7103011Y9143481D01*
X7390006Y9024604D01*
X7694679Y8964000D01*
X8005321Y8964000D01*
X8309994Y9024604D01*
X8596989Y9143481D01*
X8855279Y9316064D01*
X9074936Y9535721D01*
X9247519Y9794011D01*
X9366396Y10081006D01*
X9427000Y10385679D01*
X9427000Y10696321D01*
X9415386Y10754710D01*
X10375850Y10754710D01*
X10500829Y9058361D01*
X10954347Y7418989D01*
X11718976Y5899594D01*
X11956439Y5544207D01*
X12937710Y4608315D01*
X18870395Y10541000D01*
X19229605Y10541000D01*
X25162290Y4608315D01*
X26143561Y5544207D01*
X26982086Y7024104D01*
X27515786Y8639154D01*
X27724150Y10327290D01*
X27696962Y10696321D01*
X28673000Y10696321D01*
X28673000Y10385679D01*
X28733604Y10081006D01*
X28852481Y9794011D01*
X29025064Y9535721D01*
X29244721Y9316064D01*
X29503011Y9143481D01*
X29790006Y9024604D01*
X30094679Y8964000D01*
X30405321Y8964000D01*
X30709994Y9024604D01*
X30996989Y9143481D01*
X31255279Y9316064D01*
X31474936Y9535721D01*
X31647519Y9794011D01*
X31766396Y10081006D01*
X31827000Y10385679D01*
X31827000Y10696321D01*
X31766396Y11000994D01*
X31647519Y11287989D01*
X31474936Y11546279D01*
X31255279Y11765936D01*
X30996989Y11938519D01*
X30709994Y12057396D01*
X30405321Y12118000D01*
X30094679Y12118000D01*
X29790006Y12057396D01*
X29503011Y11938519D01*
X29244721Y11765936D01*
X29025064Y11546279D01*
X28852481Y11287989D01*
X28733604Y11000994D01*
X28673000Y10696321D01*
X27696962Y10696321D01*
X27599171Y12023639D01*
X27145653Y13663011D01*
X26381024Y15182406D01*
X26143561Y15537793D01*
X25162290Y16473685D01*
X19229605Y10541000D01*
X18870395Y10541000D01*
X12937710Y16473685D01*
X11956439Y15537793D01*
X11117914Y14057896D01*
X10584214Y12442846D01*
X10375850Y10754710D01*
X9415386Y10754710D01*
X9366396Y11000994D01*
X9247519Y11287989D01*
X9074936Y11546279D01*
X8855279Y11765936D01*
X8596989Y11938519D01*
X8527000Y11967509D01*
X8527000Y13579755D01*
X8530274Y13613000D01*
X8527000Y13646245D01*
X8527000Y13646252D01*
X8517204Y13745715D01*
X8478492Y13873330D01*
X8415628Y13990941D01*
X8352224Y14068199D01*
X8352218Y14068205D01*
X8331026Y14094027D01*
X8305205Y14115218D01*
X8250582Y14169841D01*
X8250582Y14637000D01*
X8244268Y14701103D01*
X8225570Y14762743D01*
X8195206Y14819550D01*
X8154343Y14869343D01*
X8104550Y14910206D01*
X8047743Y14940570D01*
X7986103Y14959268D01*
X7922000Y14965582D01*
X7703737Y14965582D01*
X7765689Y15006977D01*
X7853023Y15094311D01*
X7921640Y15197004D01*
X7968905Y15311111D01*
X7993000Y15432246D01*
X7993000Y15555754D01*
X7968905Y15676889D01*
X7943000Y15739429D01*
X7943000Y15810486D01*
X7986103Y15814732D01*
X8047743Y15833430D01*
X8104550Y15863794D01*
X8154343Y15904657D01*
X8195206Y15954450D01*
X8225570Y16011257D01*
X8244268Y16072897D01*
X8250582Y16137000D01*
X8250582Y16653290D01*
X13117315Y16653290D01*
X19050000Y10720605D01*
X24982685Y16653290D01*
X24046793Y17634561D01*
X22566896Y18473086D01*
X20951846Y19006786D01*
X19263710Y19215150D01*
X17567361Y19090171D01*
X15927989Y18636653D01*
X14408594Y17872024D01*
X14053207Y17634561D01*
X13117315Y16653290D01*
X8250582Y16653290D01*
X8250582Y17137000D01*
X8244268Y17201103D01*
X8225570Y17262743D01*
X8195206Y17319550D01*
X8154343Y17369343D01*
X8104550Y17410206D01*
X8047743Y17440570D01*
X7986103Y17459268D01*
X7943000Y17463514D01*
X7943000Y17661571D01*
X7968905Y17724111D01*
X7993000Y17845246D01*
X7993000Y17968754D01*
X7968905Y18089889D01*
X7921640Y18203996D01*
X7853023Y18306689D01*
X7851294Y18308418D01*
X7922000Y18308418D01*
X7986103Y18314732D01*
X8047743Y18333430D01*
X8104550Y18363794D01*
X8154343Y18404657D01*
X8195206Y18454450D01*
X8225570Y18511257D01*
X8244268Y18572897D01*
X8250582Y18637000D01*
X8250582Y19637000D01*
X8244268Y19701103D01*
X8225570Y19762743D01*
X8195206Y19819550D01*
X8154343Y19869343D01*
X8104550Y19910206D01*
X8047743Y19940570D01*
X7986103Y19959268D01*
X7922000Y19965582D01*
X6722000Y19965582D01*
X6657897Y19959268D01*
X6596257Y19940570D01*
X6539450Y19910206D01*
X6489657Y19869343D01*
X6448794Y19819550D01*
X6418430Y19762743D01*
X6399732Y19701103D01*
X6393418Y19637000D01*
X6393418Y18637000D01*
X6399732Y18572897D01*
X6418430Y18511257D01*
X6448794Y18454450D01*
X6489657Y18404657D01*
X6539450Y18363794D01*
X6596257Y18333430D01*
X6657897Y18314732D01*
X6722000Y18308418D01*
X6880706Y18308418D01*
X6878977Y18306689D01*
X6810360Y18203996D01*
X6763095Y18089889D01*
X6739000Y17968754D01*
X6739000Y17845246D01*
X6763095Y17724111D01*
X6789000Y17661571D01*
X6789000Y17465582D01*
X6722000Y17465582D01*
X6657897Y17459268D01*
X6596257Y17440570D01*
X6539450Y17410206D01*
X6489657Y17369343D01*
X6448794Y17319550D01*
X6418430Y17262743D01*
X6403644Y17214000D01*
X6214429Y17214000D01*
X6151889Y17239905D01*
X6030754Y17264000D01*
X5907246Y17264000D01*
X5786111Y17239905D01*
X5672004Y17192640D01*
X5569311Y17124023D01*
X5481977Y17036689D01*
X5413360Y16933996D01*
X5366095Y16819889D01*
X5342000Y16698754D01*
X5342000Y16575246D01*
X5366095Y16454111D01*
X5413360Y16340004D01*
X5481977Y16237311D01*
X5569311Y16149977D01*
X5672004Y16081360D01*
X5786111Y16034095D01*
X5907246Y16010000D01*
X6030754Y16010000D01*
X6151889Y16034095D01*
X6214429Y16060000D01*
X6403644Y16060000D01*
X6418430Y16011257D01*
X6448794Y15954450D01*
X6489657Y15904657D01*
X6539450Y15863794D01*
X6596257Y15833430D01*
X6657897Y15814732D01*
X6722000Y15808418D01*
X6789000Y15808418D01*
X6789000Y15739429D01*
X6763095Y15676889D01*
X6739000Y15555754D01*
X6739000Y15432246D01*
X6763095Y15311111D01*
X6810360Y15197004D01*
X6878977Y15094311D01*
X6966311Y15006977D01*
X7028263Y14965582D01*
X6722000Y14965582D01*
X6657897Y14959268D01*
X6596257Y14940570D01*
X6539450Y14910206D01*
X6489657Y14869343D01*
X6448794Y14819550D01*
X6418430Y14762743D01*
X6399732Y14701103D01*
X6393418Y14637000D01*
X6393418Y13637000D01*
X6399732Y13572897D01*
X6418430Y13511257D01*
X6448794Y13454450D01*
X6489657Y13404657D01*
X6539450Y13363794D01*
X6596257Y13333430D01*
X6657897Y13314732D01*
X6722000Y13308418D01*
X7173000Y13308418D01*
X7173001Y11967510D01*
X7103011Y11938519D01*
X6844721Y11765936D01*
X6625064Y11546279D01*
X6475000Y11321691D01*
X6475000Y12052625D01*
X6476219Y12065000D01*
X6471353Y12114401D01*
X6456944Y12161903D01*
X6433544Y12205681D01*
X6402053Y12244053D01*
X6363681Y12275544D01*
X6319903Y12298944D01*
X6272401Y12313353D01*
X6235376Y12317000D01*
X6235375Y12317000D01*
X6223000Y12318219D01*
X6210624Y12317000D01*
X252000Y12317000D01*
X252000Y14637000D01*
X893418Y14637000D01*
X893418Y13637000D01*
X899732Y13572897D01*
X918430Y13511257D01*
X948794Y13454450D01*
X989657Y13404657D01*
X1039450Y13363794D01*
X1096257Y13333430D01*
X1157897Y13314732D01*
X1222000Y13308418D01*
X2422000Y13308418D01*
X2486103Y13314732D01*
X2547743Y13333430D01*
X2604550Y13363794D01*
X2654343Y13404657D01*
X2695206Y13454450D01*
X2725570Y13511257D01*
X2744268Y13572897D01*
X2750582Y13637000D01*
X2750582Y14637000D01*
X2744268Y14701103D01*
X2725570Y14762743D01*
X2695206Y14819550D01*
X2654343Y14869343D01*
X2604550Y14910206D01*
X2547743Y14940570D01*
X2486103Y14959268D01*
X2422000Y14965582D01*
X1222000Y14965582D01*
X1157897Y14959268D01*
X1096257Y14940570D01*
X1039450Y14910206D01*
X989657Y14869343D01*
X948794Y14819550D01*
X918430Y14762743D01*
X899732Y14701103D01*
X893418Y14637000D01*
X252000Y14637000D01*
X252000Y15218452D01*
X3745000Y15218452D01*
X3745000Y15055548D01*
X3776782Y14895773D01*
X3839123Y14745269D01*
X3929628Y14609819D01*
X4044819Y14494628D01*
X4180269Y14404123D01*
X4330773Y14341782D01*
X4490548Y14310000D01*
X4653452Y14310000D01*
X4813227Y14341782D01*
X4963731Y14404123D01*
X5099181Y14494628D01*
X5214372Y14609819D01*
X5304877Y14745269D01*
X5367218Y14895773D01*
X5399000Y15055548D01*
X5399000Y15218452D01*
X5367218Y15378227D01*
X5304877Y15528731D01*
X5214372Y15664181D01*
X5099181Y15779372D01*
X4963731Y15869877D01*
X4813227Y15932218D01*
X4653452Y15964000D01*
X4490548Y15964000D01*
X4330773Y15932218D01*
X4180269Y15869877D01*
X4044819Y15779372D01*
X3929628Y15664181D01*
X3839123Y15528731D01*
X3776782Y15378227D01*
X3745000Y15218452D01*
X252000Y15218452D01*
X252000Y17137000D01*
X893418Y17137000D01*
X893418Y16137000D01*
X899732Y16072897D01*
X918430Y16011257D01*
X948794Y15954450D01*
X989657Y15904657D01*
X1039450Y15863794D01*
X1096257Y15833430D01*
X1157897Y15814732D01*
X1222000Y15808418D01*
X2422000Y15808418D01*
X2486103Y15814732D01*
X2547743Y15833430D01*
X2604550Y15863794D01*
X2654343Y15904657D01*
X2695206Y15954450D01*
X2725570Y16011257D01*
X2744268Y16072897D01*
X2750582Y16137000D01*
X2750582Y17137000D01*
X2744268Y17201103D01*
X2725570Y17262743D01*
X2695206Y17319550D01*
X2654343Y17369343D01*
X2604550Y17410206D01*
X2547743Y17440570D01*
X2486103Y17459268D01*
X2422000Y17465582D01*
X1222000Y17465582D01*
X1157897Y17459268D01*
X1096257Y17440570D01*
X1039450Y17410206D01*
X989657Y17369343D01*
X948794Y17319550D01*
X918430Y17262743D01*
X899732Y17201103D01*
X893418Y17137000D01*
X252000Y17137000D01*
X252000Y18218452D01*
X3745000Y18218452D01*
X3745000Y18055548D01*
X3776782Y17895773D01*
X3839123Y17745269D01*
X3929628Y17609819D01*
X4044819Y17494628D01*
X4180269Y17404123D01*
X4330773Y17341782D01*
X4490548Y17310000D01*
X4653452Y17310000D01*
X4813227Y17341782D01*
X4963731Y17404123D01*
X5099181Y17494628D01*
X5214372Y17609819D01*
X5304877Y17745269D01*
X5367218Y17895773D01*
X5399000Y18055548D01*
X5399000Y18218452D01*
X5367218Y18378227D01*
X5304877Y18528731D01*
X5214372Y18664181D01*
X5099181Y18779372D01*
X4963731Y18869877D01*
X4813227Y18932218D01*
X4653452Y18964000D01*
X4490548Y18964000D01*
X4330773Y18932218D01*
X4180269Y18869877D01*
X4044819Y18779372D01*
X3929628Y18664181D01*
X3839123Y18528731D01*
X3776782Y18378227D01*
X3745000Y18218452D01*
X252000Y18218452D01*
X252000Y19637000D01*
X893418Y19637000D01*
X893418Y18637000D01*
X899732Y18572897D01*
X918430Y18511257D01*
X948794Y18454450D01*
X989657Y18404657D01*
X1039450Y18363794D01*
X1096257Y18333430D01*
X1157897Y18314732D01*
X1222000Y18308418D01*
X2422000Y18308418D01*
X2486103Y18314732D01*
X2547743Y18333430D01*
X2604550Y18363794D01*
X2654343Y18404657D01*
X2695206Y18454450D01*
X2725570Y18511257D01*
X2744268Y18572897D01*
X2750582Y18637000D01*
X2750582Y19637000D01*
X2744268Y19701103D01*
X2725570Y19762743D01*
X2695206Y19819550D01*
X2654343Y19869343D01*
X2604550Y19910206D01*
X2547743Y19940570D01*
X2486103Y19959268D01*
X2422000Y19965582D01*
X1222000Y19965582D01*
X1157897Y19959268D01*
X1096257Y19940570D01*
X1039450Y19910206D01*
X989657Y19869343D01*
X948794Y19819550D01*
X918430Y19762743D01*
X899732Y19701103D01*
X893418Y19637000D01*
X252000Y19637000D01*
X252000Y20703000D01*
X26405654Y20703000D01*
X27308112Y20628804D01*
G37*
G04 #@! TD.AperFunction*
M02*
